<svg width="182" height="56" viewBox="0 0 182 56" fill="none" xmlns="http://www.w3.org/2000/svg">
<g clip-path="url(#clip0_1_3141)">
<mask id="mask0_1_3141" style="mask-type:luminance" maskUnits="userSpaceOnUse" x="0" y="0" width="182" height="56">
<path d="M0.363281 0H181.141V56H0.363281V0Z" fill="white"/>
</mask>
<g mask="url(#mask0_1_3141)">
<path fill-rule="evenodd" clip-rule="evenodd" d="M124.752 7.6431C122.721 7.88976 121.27 10.072 119.941 10.8018C120.038 10.7915 120.129 10.7744 120.101 10.6442C120.341 9.56503 120.814 8.70519 120.901 7.48551C110.233 3.7855 99.8589 9.19501 92.2199 13.3267C86.1114 16.6258 80.6609 20.5108 76.8307 24.379C78.2117 22.0529 79.6797 19.7643 81.3182 17.5889C82.9775 15.3895 84.8281 13.399 86.2891 11.4326C83.0923 10.6069 79.8954 9.74017 76.6705 9.0653C72.0926 8.10951 65.7268 6.51297 61.9314 8.59252C60.8356 9.18863 59.9381 10.6686 58.8875 10.8022C58.0214 10.9153 56.5882 10.2849 55.5203 10.1684C51.6034 9.74017 48.0029 10.0999 44.4617 10.8022C41.1465 11.46 34.1369 12.6179 33.2392 15.6943C32.6618 17.6677 33.9419 19.5896 33.7193 21.5355C33.4966 23.4574 31.6251 25.9994 30.6754 27.5342C29.5066 29.4116 28.3239 31.0766 26.3445 31.9537C25.1444 26.0783 26.4524 20.8435 27.4681 15.8619C28.1012 12.7924 29.364 9.64399 28.2717 6.54703C25.214 6.12565 22.6433 8.5135 19.6133 9.70574C13.9327 11.9429 7.60188 13.9847 6.7915 20.4388C6.3358 24.0702 7.72379 26.3861 8.71522 28.9659C10.8337 34.5056 13.4531 39.1991 16.57 43.4886C15.7212 45.0234 13.7175 45.4242 13.5226 47.586C14.4305 48.8467 16.309 49.0146 18.1701 49.0043C23.5516 48.994 27.9588 46.3287 31.9493 44.1122C40.6493 39.2953 46.4898 31.875 52.6265 24.8588C53.7048 23.622 54.5954 22.142 55.9938 21.3884C57.3748 27.6235 54.6928 30.9532 52.7864 36.0584C52.0559 38.0249 49.7322 44.1914 50.8627 47.1037C52.1011 50.3103 62.6551 50.4508 65.4522 48.3747C66.8576 47.323 67.4176 44.9557 68.176 43.4791C69.1361 41.5846 69.9744 39.9436 70.7398 38.2718C70.785 45.1818 75.9924 47.2166 81.6416 48.69C93.6255 51.811 105.71 46.2336 112.246 42.3761C111.429 47.4978 113.45 48.0151 117.537 48.8476C128.109 50.9956 138.75 48.5153 147.343 46.4803C155.225 44.6098 161.567 43.2874 162.732 35.5859C161.466 34.5169 158.314 34.6506 156.161 34.9555C149.802 35.8668 143.648 39.0357 135.167 38.4293C133.619 38.3128 130.28 37.7887 130.04 36.85C129.668 35.3939 132.322 34.3765 134.538 34.0099C140.897 32.9479 150.084 34.0167 155.204 32.1119C157.664 31.2006 160.631 28.5627 160.335 25.6404C160.14 23.6671 157.531 22.6427 155.048 22.4851C148.038 22.0535 143.025 26.0789 135.661 24.6948C136.576 23.5437 136.746 21.6595 137.905 20.7482C143.283 20.6351 148.518 21.6869 153.614 21.3785C160.693 20.94 164.691 18.004 168.04 14.1157C168.395 13.6943 169.296 13.2489 169 12.5398C156.686 10.6863 139.915 5.81129 124.751 7.64419L124.752 7.6431ZM180.514 8.27346C180.713 9.03743 179.846 9.76713 179.401 10.329C175.627 14.9917 171.449 20.5175 166.419 24.0528C166.781 25.913 166.586 28.3763 165.939 29.7364C167.254 31.3945 168.652 32.9636 169.463 35.1047C168.395 40.6992 165.911 45.0467 161.938 47.89C158.056 50.6616 152.821 51.751 146.873 53.1008C135.372 55.7148 116.459 58.2842 107.93 51.5215C98.694 56.8521 80.0276 57.5647 71.3904 51.2063C65.2437 58.8598 41.0323 58.1848 44.6291 42.9978C40.1416 46.3449 33.4975 50.9596 27.1596 53.5739C19.8127 56.5921 5.89109 56.2564 7.27943 45.9959C7.44988 44.7763 7.97515 44.0842 8.56304 42.9982C6.41668 39.3051 5.05311 36.7357 3.7556 33.5254C2.50682 30.4455 0.610969 26.9374 0.388248 22.6415C-0.0744089 13.4941 7.16464 7.68727 14.3339 4.96761C17.9935 3.57331 20.9677 1.56571 24.5928 0.548178C30.009 -0.969519 34.6567 1.95967 35.004 6.86208C41.3003 5.02234 48.9675 2.99421 57.285 4.1796C63.9014 -0.890674 76.8313 2.24058 85.326 4.65237C87.2497 5.19708 89.8343 6.60858 91.2571 6.54693C92.4607 6.49554 94.6418 4.88882 95.9081 4.33726C101.874 1.73353 109.666 -1.03796 118.189 0.390629C119.8 0.661271 121.278 1.50402 122.997 1.65478C124.165 1.75756 125.588 1.39783 126.844 1.33959C146.745 0.373456 163.328 5.63562 180.516 8.27355" fill="#CCCCCC"/>
</g>
<path fill-rule="evenodd" clip-rule="evenodd" d="M118.913 13.9727C120.405 15.6575 123.69 15.5786 125.64 16.8174C123.005 17.4865 119.695 17.4865 117.31 18.3993C117.87 16.9512 118.378 15.4482 118.913 13.9727Z" fill="#CCCCCC"/>
<path fill-rule="evenodd" clip-rule="evenodd" d="M100.33 19.8232C99.5475 23.3714 97.8926 27.4309 96.9644 31.3671C102.058 31.4357 107.422 30.4166 112.658 30.1009C113.367 29.1709 113.715 27.8773 114.097 26.6214C115.147 28.0901 115.888 30.8284 114.9 32.949C106.953 32.8426 101.237 39.2629 93.4431 39.2732C89.9526 39.2732 86.9801 37.2967 88.635 33.4225C90.9678 27.9561 96.7598 24.1442 100.331 19.8239" fill="#CCCCCC"/>
</g>
<defs>
<clipPath id="clip0_1_3141">
<rect width="181" height="56" fill="white" transform="translate(0.363281)"/>
</clipPath>
</defs>
</svg>
