<svg width="130" height="32" viewBox="0 0 130 32" fill="none" xmlns="http://www.w3.org/2000/svg">
<path fill-rule="evenodd" clip-rule="evenodd" d="M89.4662 18.8754L88.2309 18.167C87.8619 17.9552 87.3896 18.0304 87.1165 18.3564C86.5447 19.0374 85.6827 19.4344 84.6284 19.4344C82.6684 19.4344 81.2984 17.9047 81.2984 16.0176C81.2984 14.1299 82.6811 12.6002 84.6284 12.6002C85.6566 12.6002 86.507 12.9965 87.08 13.6685C87.3574 13.9933 87.8315 14.0661 88.2 13.8494L89.4389 13.121C89.9111 12.8436 90.0228 12.2099 89.6756 11.7868C88.5089 10.3628 86.7371 9.43222 84.6284 9.43222C80.7994 9.43222 78.0807 12.3804 78.0807 16.0176C78.0807 19.6541 80.7745 22.6023 84.6284 22.6023C86.7705 22.6023 88.5545 21.6548 89.7162 20.2083C90.0598 19.781 89.9421 19.1479 89.4662 18.8754ZM97.9206 9.60928C96.5968 9.87945 95.6851 10.6753 95.1873 11.8868V10.6468C95.1873 10.155 94.7885 9.75629 94.2968 9.75629H92.8601C92.3684 9.75629 91.9696 10.155 91.9696 10.6468V21.3379C91.9696 21.8295 92.3684 22.2283 92.8601 22.2283H94.2968C94.7885 22.2283 95.1873 21.8295 95.1873 21.3379V16.6165C95.1885 16.6184 95.1891 16.6201 95.1897 16.6221C95.1387 14.3319 96.3619 13.1943 98.1598 13.0827C98.6229 13.0541 98.9786 12.6595 98.9786 12.1958V10.4847C98.9786 9.92564 98.4681 9.49765 97.9206 9.60928ZM55.7697 14.82C56.1485 13.15 57.3704 12.3008 58.9771 12.3008C60.5699 12.3008 61.7347 13.1877 62.1062 14.82H55.7697ZM59.0644 9.40728C54.9738 9.40728 52.4293 12.3804 52.4293 16.0176C52.4293 19.7839 55.1486 22.5774 59.1894 22.5774C61.4062 22.5774 62.9291 21.8356 63.9865 20.7892C64.3987 20.3807 64.2991 19.688 63.7972 19.3961L62.7033 18.7612C62.3798 18.573 61.9743 18.6082 61.6872 18.8473C61.0468 19.3804 60.1922 19.6589 59.289 19.6589C57.454 19.6589 56.2254 18.8777 55.8066 17.3147H62.673C62.6724 17.3166 62.6718 17.3183 62.6712 17.3207L64.2967 17.3293C64.8388 17.3323 65.2831 16.9086 65.3153 16.3671C65.3219 16.2537 65.3256 16.1371 65.3256 16.0176C65.3256 12.8496 63.1804 9.40728 59.0644 9.40728ZM75.1363 15.6994C75.1375 15.6982 75.1382 15.6977 75.1394 15.697C74.187 15.0991 73.2765 14.8715 72.3897 14.6203C70.8916 14.1971 70.1941 13.9282 70.1941 13.2733C70.1941 13.0493 70.3192 12.276 71.7159 12.276C72.4607 12.276 72.9572 12.6372 73.2583 12.9746C73.5332 13.2824 73.9879 13.3516 74.3484 13.15L75.4951 12.5084C75.9886 12.2323 76.1106 11.5652 75.7312 11.1457C74.9148 10.2431 73.5539 9.40728 71.691 9.40728C69.0457 9.40728 66.9018 10.804 66.9018 13.4231C66.9018 16.6226 70.4861 16.9371 72.3393 17.6388C73.2625 17.9879 73.3372 18.4012 73.3372 18.6257C73.3372 19.1102 72.9384 19.6589 71.6412 19.6589C70.4867 19.6589 69.8548 19.1666 69.5198 18.7248C69.2509 18.3696 68.7634 18.2658 68.375 18.4831L67.1719 19.1558C66.7094 19.4143 66.5697 20.0201 66.8799 20.4498C67.7194 21.6111 69.2484 22.5774 71.691 22.5774C74.9087 22.5774 76.6295 20.8815 76.6295 18.437C76.6295 17.2273 76.0505 16.3108 75.1363 15.6994ZM43.4367 19.4847C41.2789 19.4847 39.9823 17.9102 39.9823 15.9671C39.9823 14.0247 41.3043 12.4502 43.4367 12.4502C45.5697 12.4502 46.8918 14.0247 46.8918 15.9671C46.8918 17.9102 45.5946 19.4847 43.4367 19.4847ZM49.2187 4.76726H47.7814C47.2897 4.76726 46.8915 5.16606 46.8915 5.65773V11.1723C45.9664 10.0627 44.6541 9.38234 43.0249 9.38234C39.3829 9.38234 36.7643 12.3304 36.7643 15.967C36.7643 19.6042 39.358 22.5524 43.0249 22.5524C44.6541 22.5524 45.9664 21.8719 46.8915 20.7623V21.3378C46.8915 21.8294 47.2897 22.2282 47.7814 22.2282H49.2187C49.7104 22.2282 50.1092 21.8294 50.1092 21.3378V5.65773C50.1092 5.16606 49.7104 4.76726 49.2187 4.76726ZM129.156 19.3364C128.167 19.3668 127.181 19.2922 127.181 18.0375V12.8495H129.182C129.633 12.8495 130 12.4828 130 12.0312V10.5744C130 10.1228 129.633 9.75619 129.182 9.75619H127.181V7.10057C127.181 6.63858 126.807 6.26406 126.345 6.26406H124.8C124.338 6.26406 123.963 6.63858 123.963 7.10057V9.75619H122.612C122.159 9.75619 121.793 10.1228 121.793 10.5744V12.0312C121.793 12.4828 122.159 12.8495 122.612 12.8495H123.963V18.0375C123.963 21.6297 125.909 22.3277 128.303 22.3277C128.668 22.3277 128.98 22.3168 129.233 22.3016C129.665 22.2756 130 21.9168 130 21.4846V20.1541C130 19.6922 129.618 19.3224 129.156 19.3364ZM114.044 19.4847C111.886 19.4847 110.589 17.9102 110.589 15.9671C110.589 14.0247 111.911 12.4502 114.044 12.4502C116.176 12.4502 117.498 14.0247 117.498 15.9671C117.498 17.9102 116.202 19.4847 114.044 19.4847ZM114.455 9.38243C112.826 9.38243 111.513 10.0628 110.588 11.1724V10.6219C110.588 10.1302 110.19 9.73139 109.698 9.73139H108.261C107.769 9.73139 107.371 10.1302 107.371 10.6219V26.3019C107.371 26.7936 107.769 27.1924 108.261 27.1924H109.698C110.19 27.1924 110.588 26.7936 110.588 26.3019V20.7624C111.513 21.872 112.826 22.5524 114.455 22.5524C118.122 22.5524 120.715 19.6042 120.715 15.9671C120.715 12.3305 118.097 9.38243 114.455 9.38243ZM102.793 4.29402C101.705 4.29402 100.822 5.17605 100.822 6.26434C100.822 7.35269 101.705 8.23533 102.793 8.23533C103.881 8.23533 104.763 7.35269 104.763 6.26434C104.763 5.17605 103.881 4.29402 102.793 4.29402ZM103.513 9.7564H102.076C101.584 9.7564 101.185 10.1551 101.185 10.6469V21.338C101.185 21.8296 101.584 22.2284 102.076 22.2284H103.513C104.005 22.2284 104.403 21.8296 104.403 21.338V10.6469C104.403 10.1551 104.005 9.7564 103.513 9.7564ZM18.1236 19.968C18.1236 21.3421 19.0189 22.2333 20.3993 22.2333H25.302C25.858 20.8541 26.2313 19.3379 26.4049 17.702H20.3993C19.0189 17.702 18.1236 18.593 18.1236 19.968ZM13.6017 19.968C13.6017 18.593 12.7063 17.702 11.3266 17.702H0V22.2333H11.3266C12.7063 22.2333 13.6017 21.3421 13.6017 19.968ZM0 28.2779C0 29.9768 1.10231 31.0785 2.8007 31.0785H10.9831C15.8646 31.0785 19.8574 29.4269 22.5719 26.5357H0V28.2779ZM6.80568 11.1221C6.80568 9.74785 5.91036 8.85617 4.53065 8.85617H0V13.3879H4.53065C5.91036 13.3879 6.80568 12.4969 6.80568 11.1221ZM13.6028 8.85611C12.2225 8.85611 11.3271 9.7478 11.3271 11.122C11.3271 12.4968 12.2225 13.3879 13.6028 13.3879H26.4044C26.2308 11.7521 25.8575 10.2352 25.3015 8.85611H13.6028ZM10.9831 0H2.8007C1.10231 0 0 1.10171 0 2.8007V4.54279H22.5719C19.8574 1.65165 15.8646 0 10.9831 0Z" fill="white"/>
</svg>
