<svg width="193" height="40" viewBox="0 0 193 40" fill="none" xmlns="http://www.w3.org/2000/svg">
<g clip-path="url(#clip0_1_3166)">
<path d="M50.8369 7.80005H54.0369V16.7C55.3369 14.8 57.1369 13.8 59.2369 13.8C62.1369 13.8 63.8369 15.4 63.8369 18.6V29.5H60.6369V19.5C60.6369 17.3 59.8369 16.7 58.2369 16.7C57.2369 16.7 56.3369 17.3 55.4369 18.4C54.5369 19.6 54.1369 21.1 54.1369 23V29.5H50.9369L50.8369 7.80005Z" fill="#CCCCCC"/>
<path d="M79.8385 22.6H68.9385C68.9385 25 70.3385 26.9 72.7385 26.9C74.4385 26.9 76.0385 25.9 76.7385 24.3L79.4385 25.4C77.8385 28.4 76.0385 29.7 72.6385 29.7C67.5385 29.7 65.4385 25.4 65.4385 21.7C65.4385 18 67.5385 13.7 72.6385 13.7C77.5385 13.7 79.7385 17.7 79.7385 21.2V22.6H79.8385ZM69.0385 20H76.5385C76.2385 18.1 74.9385 16.6 72.8385 16.6C70.7385 16.6 69.4385 18 69.0385 20Z" fill="#CCCCCC"/>
<path d="M104.838 13.8C105.638 13.8 106.338 14 107.238 14.4C108.038 14.8 108.638 15.2 109.038 15.7V7.69995H112.238V29.4H109.038V27.6C108.438 28.6 106.738 29.6 104.838 29.6C100.338 29.6 97.9385 26.7 97.9385 21.6C97.9385 16.8 100.338 13.8 104.838 13.8ZM101.238 21.7C101.238 23.3 101.638 24.5 102.338 25.5C103.038 26.4 104.038 26.9 105.138 26.9C106.338 26.9 107.238 26.4 107.938 25.5C108.638 24.6 109.038 23.3 109.038 21.7C109.038 20.1 108.638 18.9 107.938 18C107.238 17.1 106.238 16.6 105.138 16.6C103.938 16.6 103.038 17.1 102.338 18C101.638 18.9 101.238 20.2 101.238 21.7Z" fill="#CCCCCC"/>
<path d="M124.337 16.2L122.337 18C121.637 17.1 120.737 16.6 119.637 16.6C118.737 16.6 118.137 17.2 118.137 18.1C118.137 18.4 118.237 18.8 118.537 19C119.037 19.5 119.537 19.8 120.937 20.3C122.037 20.7 122.437 20.9 123.337 21.4C124.537 22.1 125.137 23.1 125.237 24.7C125.237 26.1 124.737 27.2 123.737 28.2C122.737 29.1 121.437 29.6 119.837 29.6C116.937 29.6 114.837 27.7 113.837 25.5L116.537 24C117.337 25.9 118.537 26.8 119.937 26.8C121.337 26.8 122.037 26.1 122.037 24.8C122.037 24.3 121.837 23.9 121.237 23.6C120.937 23.4 120.737 23.3 120.437 23.2C119.937 23 118.837 22.6 118.337 22.4C116.137 21.5 115.037 20.1 115.037 18.2C115.037 17 115.537 15.9 116.337 15.1C117.237 14.2 118.337 13.8 119.737 13.8C121.637 13.8 123.337 14.7 124.337 16.2Z" fill="#CCCCCC"/>
<path d="M134.537 29.7C132.737 29.7 131.137 28.8 130.437 27.7V35.7001H127.237V14H130.437V15.8C131.037 14.8 132.737 13.8 134.637 13.8C139.137 13.8 141.537 16.7 141.537 21.8C141.437 26.6 139.037 29.7 134.537 29.7ZM138.137 21.7C138.137 20.1 137.737 18.9 137.037 18C136.337 17.1 135.337 16.6 134.237 16.6C133.037 16.6 132.137 17.1 131.437 18C130.737 18.9 130.337 20.2 130.337 21.7C130.337 23.3 130.737 24.5 131.437 25.5C132.137 26.4 133.137 26.9 134.237 26.9C135.437 26.9 136.337 26.4 137.037 25.5C137.737 24.6 138.137 23.3 138.137 21.7Z" fill="#CCCCCC"/>
<path d="M172.938 25.4C171.638 28.2 169.438 29.7 166.238 29.7C163.938 29.7 162.138 28.9 160.838 27.4C159.538 25.9 158.938 24 158.938 21.7C158.938 19.4 159.538 17.5 160.838 16C162.138 14.5 163.938 13.7 166.238 13.7C169.438 13.7 171.638 15.1 172.938 18L170.138 19.2C169.338 17.4 168.038 16.5 166.338 16.5C163.738 16.5 162.438 18.6 162.438 21.6C162.438 24.7 163.738 26.7 166.338 26.7C168.038 26.7 169.338 25.8 170.138 24L172.938 25.4Z" fill="#CCCCCC"/>
<path d="M188.338 22.6H177.438C177.438 25 178.838 26.9 181.238 26.9C182.938 26.9 184.538 25.9 185.238 24.3L187.938 25.4C186.338 28.4 184.538 29.7 181.138 29.7C176.038 29.7 173.938 25.4 173.938 21.7C173.938 18 176.038 13.7 181.138 13.7C186.038 13.7 188.238 17.7 188.238 21.2V22.6H188.338ZM177.538 20H185.038C184.738 18.1 183.438 16.6 181.338 16.6C179.238 16.6 177.838 18 177.538 20Z" fill="#CCCCCC"/>
<path d="M88.6384 13.8C89.4384 13.8 90.1384 14 91.0384 14.4C91.8384 14.8 92.4384 15.2 92.8384 15.7V14H96.0384V29.5H93.3384L92.8384 27.7C92.2384 28.7 90.5384 29.7 88.6384 29.7C84.1384 29.7 81.7384 26.8 81.7384 21.7C81.6384 16.9 84.0384 13.8 88.6384 13.8ZM85.0384 21.8C85.0384 23.4 85.4384 24.6 86.1384 25.6C86.8384 26.5 87.8384 27 88.9384 27C90.1384 27 91.0384 26.5 91.7384 25.6C92.4384 24.7 92.8384 23.4 92.8384 21.8C92.8384 20.2 92.4384 19 91.7384 18.1C91.0384 17.2 90.0384 16.7 88.9384 16.7C87.7384 16.7 86.8384 17.2 86.1384 18.1C85.4384 18.9 85.0384 20.2 85.0384 21.8Z" fill="#CCCCCC"/>
<path d="M149.937 13.8C150.737 13.8 151.437 14 152.337 14.4C153.137 14.8 153.737 15.2 154.137 15.7V14H157.337V29.5H154.637L154.137 27.7C153.537 28.7 151.837 29.7 149.937 29.7C145.437 29.7 143.037 26.8 143.037 21.7C142.937 16.9 145.337 13.8 149.937 13.8ZM146.337 21.8C146.337 23.4 146.737 24.6 147.437 25.6C148.137 26.5 149.137 27 150.237 27C151.437 27 152.337 26.5 153.037 25.6C153.737 24.7 154.137 23.4 154.137 21.8C154.137 20.2 153.737 19 153.037 18.1C152.337 17.2 151.337 16.7 150.237 16.7C149.037 16.7 148.137 17.2 147.437 18.1C146.637 18.9 146.337 20.2 146.337 21.8Z" fill="#CCCCCC"/>
<path d="M40.9377 19.7999C41.4377 26.3999 38.3377 30.0999 36.5377 32.6999C33.7377 35.6999 30.0377 39.7999 20.9377 39.9999C13.1377 40.2999 9.3377 36.8999 6.1377 33.8999C1.9377 29.2999 0.837695 26.4999 0.637695 19.7999C0.637695 15.5999 2.2377 11.4999 5.0377 7.79994C8.9377 2.29994 15.1377 0.399944 20.9377 -5.60479e-05C26.9377 -0.200056 31.7377 2.79994 35.0377 6.09994C39.2377 10.5999 40.5377 14.3999 40.9377 19.7999Z" fill="#CCCCCC"/>
<path d="M191.637 14.3999C191.537 14.2999 191.437 14.1999 191.337 14.0999C191.237 13.9999 191.037 13.8999 190.937 13.8999C190.537 13.7999 190.037 13.7999 189.637 14.0999C189.537 14.1999 189.437 14.2999 189.337 14.3999C189.237 14.4999 189.237 14.6999 189.137 14.7999C189.037 15.1999 189.037 15.6999 189.337 15.9999C189.437 16.0999 189.537 16.1999 189.637 16.2999C189.737 16.3999 189.937 16.4999 190.037 16.4999C190.137 16.4999 190.337 16.5999 190.437 16.5999C190.737 16.5999 191.037 16.4999 191.237 16.2999C191.337 16.1999 191.437 16.0999 191.537 15.9999C191.637 15.8999 191.637 15.6999 191.737 15.5999C191.937 15.1999 191.837 14.6999 191.637 14.3999ZM191.337 15.8999C191.237 15.9999 191.137 16.0999 191.137 16.1999C191.037 16.2999 190.937 16.2999 190.837 16.3999C190.437 16.4999 190.137 16.4999 189.837 16.1999C189.737 16.0999 189.637 15.9999 189.637 15.8999C189.537 15.7999 189.537 15.6999 189.437 15.5999C189.437 15.4999 189.337 15.3999 189.337 15.1999C189.337 14.9999 189.437 14.6999 189.537 14.4999C189.637 14.3999 189.737 14.2999 189.837 14.1999C189.937 14.0999 190.037 14.0999 190.137 13.9999C190.537 13.8999 190.837 13.8999 191.137 14.1999C191.237 14.2999 191.337 14.3999 191.337 14.4999C191.437 14.5999 191.437 14.6999 191.537 14.7999C191.637 15.1999 191.537 15.5999 191.337 15.8999Z" fill="#CCCCCC"/>
<path d="M190.638 15.2999C190.738 15.2999 190.838 15.2999 190.938 15.1999C191.138 14.9999 191.138 14.6999 191.038 14.5999C190.838 14.3999 190.738 14.3999 190.538 14.3999H189.938V15.9999H190.138V15.2999H190.438L190.838 15.9999H191.138L190.638 15.2999ZM190.438 15.0999H190.138V14.5999C190.338 14.5999 190.538 14.5999 190.738 14.5999C190.838 14.6999 190.838 14.7999 190.838 14.8999C190.838 14.9999 190.738 14.9999 190.638 14.9999C190.538 15.0999 190.538 15.0999 190.438 15.0999Z" fill="#CCCCCC"/>
</g>
<defs>
<clipPath id="clip0_1_3166">
<rect width="192" height="40" fill="white" transform="translate(0.637695)"/>
</clipPath>
</defs>
</svg>
