<svg width="163" height="46" viewBox="0 0 163 46" fill="none" xmlns="http://www.w3.org/2000/svg">
<g clip-path="url(#clip0_1_3157)">
<path d="M17.9378 26.0341H6.02185V38.5865H0.363281V7.61426H6.02185V20.5902H17.9378V7.61426H23.5951V38.5865H17.9378V26.0341Z" fill="#CCCCCC"/>
<path d="M41.7007 28.5757C41.7007 31.1553 39.5994 33.2542 37.0204 33.2542C34.4407 33.2542 32.3408 31.1553 32.3408 28.5757V15.3101H26.9826V28.5757C26.9826 34.1102 31.4857 38.6122 37.0204 38.6122C42.554 38.6122 47.0571 34.1102 47.0571 28.5757V15.3101H41.7007V28.5757Z" fill="#CCCCCC"/>
<path d="M81.4596 16.6758C81.4596 13.956 83.2598 13.0935 85.2307 13.0935C86.8177 13.0935 88.9178 14.3013 90.288 15.769L93.8018 11.6269C92.0459 9.25441 88.4889 7.61426 85.5742 7.61426C79.744 7.61426 75.5434 11.0232 75.5434 16.6758C75.5434 27.1602 88.3602 23.8368 88.3602 29.7063C88.3602 31.5163 86.6034 33.1143 84.5895 33.1143C81.4166 33.1143 80.3874 31.561 78.9306 29.9211L75.0293 33.9762C77.5168 37.0398 80.602 38.5941 84.2885 38.5941C89.8179 38.5941 94.2759 35.1421 94.2759 29.7479C94.2759 18.0987 81.4596 21.7235 81.4596 16.6758Z" fill="#CCCCCC"/>
<path d="M160.751 33.6388C157.58 33.6388 156.681 32.2679 156.681 30.1668V20.866H161.609V16.1515H156.681V9.93555L151.238 12.3785V31.3244C151.238 36.1684 154.58 38.6121 159.165 38.6121C159.851 38.6121 160.795 38.5678 161.31 38.4407L162.639 33.5547C162.039 33.596 161.353 33.6388 160.751 33.6388Z" fill="#CCCCCC"/>
<path d="M62.1252 15.4653C59.4674 15.4653 57.6123 16.2367 55.8207 17.9953V7.79932H50.4453V26.6955C50.4453 33.7682 55.5588 38.6122 61.3044 38.6122C67.6912 38.6122 73.2873 33.682 73.2873 27.0392C73.2873 20.4805 68.127 15.4653 62.1252 15.4653ZM62.0918 33.2023C58.7244 33.2023 55.995 30.4727 55.995 27.1056C55.995 23.7385 58.7244 21.0089 62.0918 21.0089C65.4588 21.0089 68.1884 23.7385 68.1884 27.1056C68.1884 30.4727 65.4588 33.2023 62.0918 33.2023Z" fill="#CCCCCC"/>
<path d="M120.482 26.7602C120.482 20.1174 114.886 15.1873 108.5 15.1873C102.754 15.1873 97.6405 20.0313 97.6405 27.104V46.0001H103.016V35.8042C104.807 37.5627 106.663 38.3342 109.32 38.3342C115.322 38.3342 120.482 33.3189 120.482 26.7602ZM115.384 26.6938C115.384 30.0609 112.654 32.7905 109.287 32.7905C105.92 32.7905 103.19 30.0609 103.19 26.6938C103.19 23.3267 105.92 20.5971 109.287 20.5971C112.654 20.5971 115.384 23.3267 115.384 26.6938Z" fill="#CCCCCC"/>
<path d="M137.851 14.9268V9.52733C139.261 8.86152 140.248 7.43573 140.248 5.78097V5.6562C140.248 3.3727 138.38 1.50432 136.096 1.50432H135.972C133.688 1.50432 131.82 3.3727 131.82 5.6562V5.78097C131.82 7.43573 132.807 8.86173 134.217 9.52744V14.9269C132.118 15.2511 130.201 16.1165 128.619 17.3902L113.794 5.85781C113.891 5.48225 113.96 5.09532 113.96 4.68928C113.964 2.10278 111.87 0.00334832 109.283 3.74161e-06C106.697 -0.00323063 104.597 2.09088 104.594 4.67737C104.591 7.26387 106.685 9.3633 109.271 9.36654C110.114 9.36759 110.894 9.12818 111.578 8.73926L126.162 20.0839C124.921 21.9559 124.195 24.1984 124.195 26.6123C124.195 29.1397 124.993 31.4772 126.343 33.4001L121.908 37.8351C121.557 37.73 121.193 37.6564 120.808 37.6564C118.683 37.6564 116.959 39.3794 116.959 41.5049C116.959 43.6303 118.683 45.3533 120.808 45.3533C122.933 45.3533 124.656 43.6303 124.656 41.5049C124.656 41.12 124.583 40.7559 124.478 40.4053L128.865 36.0184C130.856 37.5386 133.336 38.4517 136.034 38.4517C142.573 38.4517 147.873 33.151 147.873 26.6123C147.873 20.6932 143.525 15.8031 137.851 14.9268ZM136.034 32.6822C132.682 32.6822 129.964 29.9646 129.964 26.6123C129.964 23.2601 132.682 20.5425 136.034 20.5425C139.386 20.5425 142.104 23.2601 142.104 26.6123C142.104 29.9647 139.386 32.6822 136.034 32.6822Z" fill="#CCCCCC"/>
</g>
<defs>
<clipPath id="clip0_1_3157">
<rect width="162.274" height="46" fill="white" transform="translate(0.363281)"/>
</clipPath>
</defs>
</svg>
