<svg width="133" height="132" viewBox="0 0 133 132" fill="none" xmlns="http://www.w3.org/2000/svg">
<path d="M36.6633 63.3479C32.3308 63.3479 31.9866 60.0479 31.9866 59.0762C31.9866 57.9222 32.2498 55.7762 35.0639 54.7437C37.878 53.7111 38.4854 53.5897 40.4897 52.9621V52.4762C40.4897 51.5044 40.4897 51.3222 40.267 50.6946C39.9228 49.5811 38.8296 48.832 37.3111 48.832C35.8737 48.832 34.6388 49.6418 34.0719 50.8363L33.2621 50.3504C33.748 48.5688 35.5903 46.7872 38.7486 46.7872C40.9351 46.7872 42.4535 47.4148 43.3443 48.7915C44.0124 49.905 44.0934 51.4032 44.0934 52.9216C44.0934 54.2983 44.0124 55.8167 44.0124 57.0516C44.0124 57.8614 43.9314 58.651 43.9314 59.0964C43.9314 60.2099 44.1541 61.1007 45.0449 61.1007C45.4498 61.1007 45.5308 60.959 45.8547 60.7565L46.3406 61.3842C45.5308 62.4976 44.559 63.3884 42.9596 63.3884C41.7246 63.3884 40.8339 62.7608 40.4694 61.7486C39.9633 62.4572 38.6473 63.3479 36.6633 63.3479ZM40.4897 54.9461C38.3639 55.5737 37.5946 55.9179 36.9872 56.2418C36.0154 56.7277 35.6105 57.6185 35.6105 58.7725C35.6105 59.6633 35.9547 61.1007 38.0197 61.1007C38.6878 61.1007 39.6596 60.959 40.5504 60.3516V54.9259H40.4897V54.9461ZM4.71606 62.4976C4.71606 60.8983 4.71606 59.5418 4.57434 57.9019H5.54612C5.54612 58.9345 5.80931 59.6835 6.2952 60.1694C6.9633 60.9185 8.56268 61.4044 10.0001 61.4044C13.0167 61.4044 14.4541 60.2504 14.4541 57.7602C14.4541 55.6345 13.1584 54.7437 11.3768 53.4884L11.1136 53.2657L9.19029 51.97C6.5179 50.1884 5.14121 48.8118 5.14121 45.9976C5.14121 44.621 5.68784 40.086 12.3486 40.086C14.0694 40.086 16.2559 40.3087 17.5719 40.4909C17.5719 40.7136 17.4909 41.7259 17.4909 42.6167C17.4909 43.6492 17.4909 43.9124 17.5719 45.1473H16.7621C16.7621 44.0338 16.4179 43.3657 15.9523 42.8799C15.3246 42.2522 13.9075 41.9081 12.3891 41.9081C8.82587 41.9081 8.42097 43.6897 8.42097 45.0664C8.42097 46.9289 9.39275 47.597 11.4983 48.9737L13.9075 50.5731C15.9523 51.9498 17.8756 53.2455 17.8756 56.6872C17.8756 62.4572 12.4498 63.0645 10.1823 63.0645C8.09704 63.348 6.35594 63.0443 4.71606 62.4976ZM47.8388 47.8197C48.6486 47.9007 49.8835 47.8197 51.078 47.597C52.1105 47.3743 52.4547 47.2529 53.2038 46.9289L53.548 47.1516V48.3866C54.3578 47.759 55.9572 46.8682 58.2246 46.8682C61.1197 46.8682 62.9823 48.2449 63.5087 50.6541C63.6504 51.2817 63.7314 52.6989 63.7314 53.5492V58.2259C63.7314 60.8375 63.8731 61.6068 64.359 62.0725C64.6222 62.2952 65.1688 62.5584 65.9584 62.5584V63.3075C64.9259 63.2265 63.0633 63.1657 61.9903 63.1657C60.5529 63.1657 58.913 63.2467 58.0222 63.3075V62.5584C58.832 62.4774 59.3179 62.2142 59.6216 62.0118C60.1075 61.5259 60.1682 60.6351 60.2492 58.6308C60.2492 58.0032 60.3302 56.7682 60.3302 55.8774C60.3302 54.7234 60.3302 53.4682 60.1885 52.2332C59.9658 50.1884 58.8927 49.2167 56.8075 49.2167C55.37 49.2167 54.4792 49.5608 53.7909 49.8848V58.2664C53.7909 60.878 53.9326 61.6473 54.4185 62.113C54.6817 62.3357 55.3093 62.5989 55.9369 62.5989V63.3479C54.6412 63.267 53.0418 63.2062 52.0296 63.2062C49.9038 63.2062 49.2154 63.2872 47.9805 63.3479V62.5584C48.6486 62.5584 49.3572 62.2952 49.7013 61.8903C50.1872 61.3437 50.248 59.967 50.248 57.2946V52.5369C50.248 50.5326 50.167 49.7228 49.9038 49.2976C49.6811 48.9535 49.1547 48.67 48.0412 48.67V47.7792H47.8995V47.8197H47.8388ZM67.6995 62.4572C68.3676 62.4572 69.0762 62.2345 69.4204 61.7891C69.9062 61.2424 69.967 59.8657 69.967 57.1933V49.1964H67.9222V48.3056C68.813 47.9615 69.5621 47.5565 69.967 47.1921C69.967 45.7547 70.048 43.9529 70.2302 42.9203C70.8578 39.6203 72.9835 37.9805 76.6075 37.9805C78.2069 37.9805 79.6848 38.5271 80.6566 39.2762L80.7375 39.6203L79.1381 41.8068H78.7332C78.1866 40.5111 77.3566 39.7621 75.9191 39.7621C75.4332 39.7621 74.7651 39.9038 74.3197 40.3087C73.6516 40.9768 73.5099 42.0295 73.5099 44.0946V47.1719H77.0731V49.1762H73.5099V58.0437C73.5099 60.1694 73.5909 61.2019 73.8541 61.6068C74.259 62.2749 75.7167 62.3559 76.3848 62.3559V63.1657C75.2308 63.0848 73.3682 63.024 72.0523 63.024C70.048 63.024 68.7523 63.105 67.7197 63.1657L67.6995 62.4572ZM86.1026 63.4694C81.2437 63.4694 78.3486 60.4529 78.3486 55.3713C78.3486 51.4032 80.4743 46.7872 86.4467 46.7872C91.3056 46.7872 94.2007 49.8038 94.2007 54.8854C94.2007 58.8535 92.0547 63.4694 86.1026 63.4694ZM86.305 48.6295C85.3332 48.6295 84.5842 48.8927 84.0375 49.3786C82.7418 50.4921 82.1142 52.3952 82.1142 55.2093C82.1142 56.3228 82.3369 61.6676 86.2443 61.6676C87.2161 61.6676 87.9651 61.4044 88.5118 60.9185C89.8075 59.805 90.4351 57.9019 90.4351 55.0878C90.4148 53.9946 90.2326 48.6295 86.305 48.6295ZM95.8406 47.7388C96.9541 47.8197 98.1081 47.6578 99.3431 47.4756C100.315 47.3338 100.942 47.1314 101.266 46.9289L101.53 47.0707V48.4473C102.279 47.6983 103.534 46.9289 105.234 46.9289C106.469 46.9289 107.279 47.2731 108.049 47.9007V48.3866L106.672 50.8768H106.004C105.599 50.1277 104.769 49.4394 103.331 49.4394C102.663 49.4394 102.096 49.5811 101.611 49.9253V58.1044C101.611 60.2302 101.692 61.1817 101.955 61.6068C102.36 62.2749 103.736 62.3559 104.485 62.2749V63.1657C103.372 63.0848 101.469 63.024 100.153 63.024C98.6345 63.024 97.0756 63.024 95.8204 63.1657V62.3559C96.7112 62.2749 97.197 62.0927 97.5412 61.6878C98.0271 61.1412 98.0878 59.8253 98.0878 57.0921V52.6381C98.0878 50.6338 98.0878 49.824 97.7437 49.3989C97.4805 49.0547 96.9338 48.8522 95.8811 48.8522V47.8197L95.8406 47.7388ZM118.313 38.9522C119.285 38.9522 120.499 38.7295 122.099 38.4664C122.99 38.3246 123.536 38.1222 123.82 38.0614L124.083 38.2032C123.941 39.4989 123.941 42.4749 123.941 44.5805V57.6185C123.941 59.5418 123.941 60.7768 124.204 61.1817C124.468 61.5259 125.014 61.8093 126.067 61.8093V62.6191C125.034 62.6191 123.88 62.7608 122.646 62.9633C121.836 63.105 121.208 63.2265 120.864 63.3682L120.459 63.2265V61.8498C119.649 62.4774 118.131 63.3682 116.005 63.3682C111.612 63.3682 108.798 60.3516 108.798 55.6142C108.798 54.0148 109.061 52.5976 109.607 51.2817C110.984 48.3866 113.738 46.7467 117.22 46.7467C118.515 46.7467 119.629 46.8884 120.297 47.0099V43.6289C120.297 41.6246 120.297 40.6124 119.953 40.1265C119.73 39.7823 119.406 39.6406 118.232 39.5799V38.932H118.313V38.9522ZM117.746 61.121C118.86 61.121 119.609 60.9792 120.358 60.4933V49.8038C120.095 49.5406 119.123 48.6903 117.199 48.6903C114.122 48.6903 112.604 50.816 112.604 55.2295C112.543 57.0719 113.09 61.121 117.746 61.121ZM30.4075 61.6068C29.9216 62.2345 28.6866 63.4694 26.075 63.4694C23.5848 63.4694 22.2283 62.5786 21.621 60.5743C21.3578 59.8253 21.3578 58.2461 21.3578 57.3351C21.3578 54.8044 21.3578 52.7394 21.4388 50.3302V49.2167H19.2927V48.5891C20.1026 48.2449 20.7302 47.921 21.297 47.4756C22.532 46.5038 23.3418 45.3498 24.2529 43.6289H24.921V47.1921H30.3467V49.1964H24.921V57.578C24.921 60.1087 25.4069 61.4854 27.7351 61.4854C28.8486 61.4854 29.5977 61.1412 30.0026 60.8578L30.4075 61.6068Z" fill="#CCCCCC"/>
<path d="M106.509 76.5884C106.246 76.5884 105.882 76.6694 105.7 76.8516C105.477 76.9933 105.477 77.1958 105.477 77.3375C105.477 77.6007 105.558 77.8234 105.74 78.37L107.258 82.3381C107.481 82.9657 107.663 83.4516 107.744 83.7755L109.607 78.3498C109.83 77.7222 109.87 77.6007 109.87 77.3173C109.87 77.1755 109.789 77.0541 109.647 76.9124C109.425 76.7706 109.162 76.6492 108.838 76.6492V76.0216C109.06 76.0216 109.506 76.0216 109.728 76.1025C109.951 76.1025 110.356 76.1835 110.7 76.1835C111.368 76.1835 112.34 76.1025 112.745 76.1025V76.7301C112.482 76.8111 111.854 76.6492 111.308 78.2486L107.4 88.6749C106.854 90.1933 106.104 92.0559 103.432 92.0559C102.319 92.0559 101.569 91.7927 100.942 91.2461V90.9829L101.914 89.8289H102.177C102.44 90.4565 102.987 90.7197 103.776 90.7197C105.011 90.7197 105.558 89.6062 106.388 87.4197L106.611 86.7921L103.331 78.2283C103.331 78.1473 103.25 78.0056 103.189 77.8841C103.108 77.6614 102.926 77.2565 102.926 77.2565C102.703 76.8516 102.379 76.7099 101.954 76.7099V76.0823C102.582 76.1633 103.675 76.1633 104.222 76.1633C104.566 76.1633 105.112 76.1633 105.659 76.0823C105.922 76.0823 106.408 76.0013 106.631 76.0013V76.5479H106.55V76.5884H106.509ZM70.1486 76.4467C70.8167 76.5277 71.5861 76.3657 72.3351 76.224C72.9627 76.0823 73.3069 76.0013 73.5701 75.8798L73.7928 75.9608V76.8516C74.2787 76.3657 75.0278 75.8798 76.121 75.8798C76.9308 75.8798 77.4167 76.1025 77.9026 76.5074V76.8516L77.0928 78.451H76.6879C76.4247 77.9651 75.9388 77.5602 74.967 77.5602C74.5621 77.5602 74.218 77.7019 73.8535 77.9044V83.067C73.8535 84.4436 73.9345 85.0713 74.0762 85.3344C74.3394 85.7393 75.1897 85.8203 75.6756 85.8203V86.367C75.0075 86.286 73.7523 86.286 72.9223 86.286C71.9505 86.286 70.918 86.286 70.1689 86.4277V85.8811C70.7155 85.8811 71.0597 85.6584 71.2824 85.4762C71.6265 85.132 71.6266 84.3222 71.6266 82.5203V79.6252C71.6266 78.3903 71.6265 77.8436 71.4039 77.5805C71.2621 77.3578 70.8572 77.2363 70.2499 77.2363V76.4872H70.1486V76.4467ZM24.4345 86.4074C21.5394 86.4074 19.8388 85.5166 19.2112 83.5933C18.867 82.6216 18.867 81.4068 18.867 80.4351V74.9486C18.867 73.3087 18.7861 73.0252 18.4621 72.762C18.3204 72.6203 17.9762 72.4989 17.4904 72.4179V71.8713C18.1585 71.9522 19.3529 72.013 20.021 72.013C21.175 72.013 21.8836 72.013 22.6327 71.8713V72.4989C22.1468 72.4989 21.8229 72.6406 21.5192 72.9038C21.175 73.2479 21.175 73.8755 21.175 75.6571V80.516C21.175 83.4111 21.4382 85.2737 24.6775 85.2737C27.9775 85.2737 28.1799 83.3504 28.1799 80.4148V75.07C28.1799 73.4301 28.0989 73.1467 27.775 72.8835C27.5523 72.7418 27.2284 72.6203 26.8032 72.5393V71.9927C27.4308 71.9927 28.2407 72.0737 29.0707 72.0737C29.8198 72.0737 30.5891 72.0737 31.4799 71.932V72.5596C30.994 72.5596 30.6701 72.7013 30.3664 72.9645C30.0223 73.3087 30.0223 73.9363 30.0223 75.7179V79.8479C30.0223 81.1436 30.0223 82.6013 29.6174 83.7553C28.9695 85.5167 27.3094 86.4074 24.4345 86.4074ZM44.0118 85.7798C44.5585 85.6989 44.9026 85.6381 45.1658 85.3749C45.51 85.0308 45.51 84.2209 45.51 82.4191V79.524C45.51 78.289 45.51 77.6614 45.2873 77.3982C45.1456 77.1755 44.8824 77.0541 44.1333 76.9933V76.3657C44.5382 76.4467 45.6517 76.2847 46.4615 76.143C46.8664 76.062 47.2713 75.9203 47.575 75.7989L47.7977 76.0216C47.7167 76.6897 47.7167 78.1473 47.7167 80.0706V83.0265C47.7167 84.4032 47.7977 85.0308 47.9394 85.2939C48.1621 85.5571 48.567 85.7798 49.1744 85.7798V86.2657C48.6278 86.1847 47.575 86.1847 46.6842 86.1847C45.6517 86.1847 44.5585 86.2657 44.0118 86.3265V85.7798ZM46.5425 74.0375C45.7327 74.0375 45.2468 73.5516 45.2468 72.8025C45.2468 72.0535 45.7934 71.5068 46.6235 71.5068C47.4333 71.5068 47.9192 71.9927 47.9192 72.7418C47.8989 73.5516 47.3523 74.0375 46.5425 74.0375ZM87.418 85.7798C87.9646 85.6989 88.3088 85.6381 88.572 85.3749C88.9161 85.0308 88.9161 84.2209 88.9161 82.4191V79.524C88.9161 78.289 88.9161 77.6614 88.6934 77.3982C88.5517 77.1755 88.2885 77.0541 87.5394 76.9933V76.3657C87.9443 76.4467 89.0578 76.2847 89.8677 76.143C90.2726 76.062 90.7585 75.9203 90.9812 75.7989L91.2039 76.0216C91.1229 76.6897 91.1229 78.1473 91.1229 80.0706V83.0265C91.1229 84.4032 91.2038 85.0308 91.3456 85.2939C91.5683 85.5571 91.9732 85.7798 92.5805 85.7798V86.2657C91.9529 86.1847 90.9407 86.1847 90.0499 86.1847C89.0173 86.1847 87.9241 86.2657 87.3775 86.3265V85.7798H87.418ZM89.9486 74.0375C89.1388 74.0375 88.6529 73.5516 88.6529 72.8025C88.6529 72.0535 89.1996 71.5068 90.0296 71.5068C90.8394 71.5068 91.3253 71.9927 91.3253 72.7418C91.3253 73.5516 90.7585 74.0375 89.9486 74.0375ZM79.0971 85.9216C79.0971 84.889 79.0161 83.7958 78.9554 83.2492H79.6235C79.6235 83.7958 79.7652 84.2817 80.0284 84.5449C80.4333 85.0308 80.9192 85.213 81.81 85.213H81.9517C83.0652 85.213 83.6726 84.7271 83.6726 83.7755C83.6726 83.0265 83.1867 82.662 82.3769 82.1762L80.9394 81.2854C80.1904 80.7995 79.2996 80.1314 79.2996 78.6737C79.2996 77.5197 79.7854 76.6289 80.737 76.143C81.3646 75.7989 82.3364 75.7989 82.7818 75.7989C83.5916 75.7989 84.7861 75.9406 85.4542 76.0621C85.3732 76.3252 85.3732 77.0338 85.3732 77.297C85.3732 77.5197 85.3732 78.451 85.4542 78.6737H84.7861C84.7861 78.2688 84.6443 77.8639 84.3811 77.5197C84.118 77.1755 83.4904 76.9731 82.7413 76.9731C81.7088 76.9731 81.1419 77.378 81.1419 78.2688C81.1419 78.9369 81.6885 79.3013 82.1744 79.6455H82.2554L83.6321 80.4553C84.5229 81.0019 85.6769 81.6903 85.6769 83.2694C85.6769 85.9418 83.1867 86.3467 81.7695 86.3467C80.9597 86.3265 80.0689 86.2657 79.0971 85.9216ZM100.658 85.2535C100.314 85.5976 99.545 86.4074 97.9051 86.4074C96.3057 86.4074 95.4149 85.8608 95.091 84.5449C94.9492 84.059 94.9492 83.0265 94.9492 82.5001C94.9492 80.8602 94.9492 79.5443 94.9492 78.0461V77.378H93.5726V76.9731C94.1192 76.7504 94.4634 76.5682 94.8683 76.305C95.6173 75.6774 96.164 74.9283 96.7916 73.8148H97.2775V76.0823H100.699V77.3173H97.2775V82.662C97.2775 84.2614 97.5407 85.1927 99.0591 85.1927C99.7272 85.1927 100.213 84.97 100.496 84.7878L100.658 85.2535ZM54.2155 76.0418C53.9928 76.0418 53.5474 76.0418 53.2437 76.1228C52.6971 76.1228 52.1302 76.2038 51.7253 76.2038C50.9762 76.2038 49.8627 76.1228 49.5388 76.1228V76.7504C49.6805 76.7504 50.2069 76.6694 50.5713 77.378C50.7131 77.6412 50.794 77.8639 50.8345 78.0056C50.9155 78.1473 50.9762 78.2688 50.9762 78.3498L54.2762 86.5897L55.3088 86.367L58.9529 78.2688C58.9529 78.1878 59.0339 78.1271 59.0947 78.0056C59.1756 77.9246 59.1756 77.7829 59.4388 77.378C59.6615 76.9731 60.1069 76.7504 60.4713 76.7504V76.1228C60.0664 76.1228 59.1756 76.2038 58.467 76.2038C58.1229 76.2038 57.7989 76.2038 57.4345 76.1228C57.1713 76.1228 56.7664 76.0418 56.4627 76.0418V76.5884C56.8069 76.5884 57.1308 76.7301 57.2726 76.8516C57.3535 76.9326 57.4953 77.1148 57.4953 77.2565C57.4953 77.4792 57.4143 77.6614 57.2321 78.289L55.2278 83.1479C55.1468 82.8848 55.0051 82.4798 54.8229 81.913L53.4462 78.2688C53.2235 77.7222 53.183 77.5197 53.183 77.2363C53.183 77.0946 53.183 76.9731 53.3247 76.8921C53.5474 76.6694 53.8713 76.5479 54.2155 76.5479V76.0013V76.0418ZM31.7836 76.4467C32.3302 76.5277 33.0793 76.4467 33.8284 76.305C34.456 76.1633 34.7192 76.0823 35.2051 75.9001L35.4278 76.0418V76.8516C35.9137 76.4467 37.0272 75.8798 38.3836 75.8798C40.2462 75.8798 41.4002 76.7706 41.7646 78.289C41.8456 78.694 41.9063 79.5847 41.9063 80.1516V83.1074C41.9063 84.7473 41.9873 85.2332 42.3112 85.5976C42.4529 85.7393 42.8578 85.8608 43.283 85.8608V86.3467C42.6149 86.3467 41.4204 86.2657 40.7523 86.2657C39.7805 86.2657 38.748 86.3467 38.2216 86.4074V85.9216C38.7075 85.8406 39.0315 85.6989 39.2542 85.5774C39.5174 85.3142 39.5983 84.6866 39.6591 83.4516C39.6591 83.0467 39.6591 82.2976 39.6591 81.67C39.6591 80.9209 39.6591 80.0706 39.5781 79.3418C39.4364 78.0461 38.7683 77.4185 37.4523 77.4185C36.5615 77.4185 35.9339 77.6412 35.529 77.8234V83.2087C35.529 84.8486 35.61 85.3344 35.9339 85.6989C36.0756 85.8406 36.4805 85.962 36.9057 85.962V86.4479C36.0149 86.2252 34.9824 86.2252 34.294 86.2252C32.9174 86.2252 32.5124 86.2252 31.7634 86.367V85.8811C32.1683 85.8811 32.6542 85.7394 32.8769 85.4762C33.1401 85.132 33.221 84.2412 33.221 82.5203V79.6252C33.221 78.3903 33.221 77.8436 32.9983 77.5805C32.8566 77.3578 32.5124 77.1755 31.8443 77.2363V76.467H31.7836V76.4467ZM65.148 86.4074C62.0707 86.4074 60.3904 84.6259 60.3904 81.3866C60.3904 80.84 60.5321 75.8191 65.1885 75.8191C66.5652 75.8191 67.8002 76.3657 68.3468 77.3375C68.9744 78.3093 69.0149 79.2608 69.0149 80.0909V80.7185H62.6376C62.6376 81.2651 62.7186 81.6903 62.7793 82.0142C63.1235 84.0185 64.2167 84.97 66.1603 84.97C67.2738 84.97 67.9419 84.7473 68.5695 84.3424L68.8327 84.8283C68.1848 85.7393 66.8081 86.4074 65.148 86.4074ZM62.6781 79.5443H66.6462C66.6462 78.3093 66.4235 76.9326 64.6419 76.9326C63.083 77.0136 62.7591 78.4915 62.6781 79.5443Z" fill="#CCCCCC"/>
</svg>
