<svg width="165" height="122" viewBox="0 0 165 122" fill="none" xmlns="http://www.w3.org/2000/svg">
<path d="M16.5782 52.094C16.5372 57.0757 19.5097 59.414 23.5072 59.414C28.8372 59.414 30.8462 55.3474 31.3997 51.1994L30.8872 51.0367C30.3132 54.0257 29.0217 55.754 27.0127 55.754C25.2702 55.754 24.3887 54.4934 24.3887 52.2974V38.6334H30.7027L30.9282 37.5557H24.3887V30.0324H23.9377C22.3592 34.404 18.7922 37.21 14.3027 38.1657V38.6334H16.6602L16.5782 52.094ZM33.1422 31.3744V54.2697C33.1422 57.1164 33.0192 57.6857 31.1332 58.8854V58.9667H43.0027V58.8854C41.0757 57.6654 40.9527 57.1164 40.9527 54.2697V46.5227C40.9527 42.6187 42.5312 40.809 44.7042 40.809C46.7542 40.809 47.6357 42.4154 47.6357 44.408V54.2697C47.6357 57.1164 47.5127 57.6857 45.6267 58.8854V58.9667H57.4962V58.8854C55.5692 57.6654 55.4462 57.1164 55.4462 54.2697V44.6114C55.4462 40.4227 53.2732 37.1287 48.5582 37.1287C44.8477 37.1287 42.0597 39.284 40.9732 43.188V26.5757H30.6002V26.657C32.6297 27.633 33.1422 28.4667 33.1422 31.3744ZM68.4432 59.414C73.4247 59.414 77.3402 56.7707 78.6112 52.1347L78.3037 52.0127C76.9507 54.6967 74.6342 55.8557 71.9692 55.8557C67.7872 55.8557 64.9377 52.6634 64.9377 47.2954H78.8162C78.8162 41.5817 75.4952 37.1287 68.4842 37.1287C62.2522 37.1287 57.0452 41.5004 57.0452 48.2917C57.0452 55.3474 62.1907 59.414 68.4432 59.414ZM68.4842 37.8607C70.9647 37.8607 71.3132 41.541 71.3132 46.3804H64.9787C65.0812 41.2767 66.2087 37.8607 68.4842 37.8607ZM27.2997 75.701C23.6712 74.5827 20.5347 73.3627 20.5347 69.8654C20.5347 66.8764 22.8512 65.148 25.7622 65.148C30.2927 65.148 33.1012 68.4014 35.7457 73.017H35.8277L35.6637 64.294C34.9667 64.8634 34.1877 65.514 33.0397 65.514C31.2972 65.514 29.0217 64.294 25.7622 64.294C19.0792 64.294 14.5487 67.893 14.5487 73.505C14.5487 79.5644 18.9562 81.435 23.2817 82.8177C27.6072 84.2817 31.9122 85.278 31.9122 89.4464C31.9122 92.781 29.5547 94.5907 25.9877 94.5907C21.6622 94.5907 17.2547 90.951 14.3847 85.4204H14.3027L15.0817 95.465C16.0452 94.733 16.9677 94.2044 18.1362 94.2044C19.9607 94.2044 22.4617 95.465 26.0287 95.465C32.3017 95.465 37.7137 92.0897 37.7137 85.9897C37.7342 78.7714 32.0967 77.2057 27.2997 75.701ZM65.1427 66.8357C65.1427 69.174 67.0287 70.9837 69.5092 70.9837C72.0307 70.9837 73.9577 69.174 73.9577 66.8357C73.9577 64.4974 72.0307 62.7284 69.5092 62.7284C67.0287 62.708 65.1427 64.477 65.1427 66.8357ZM140.911 90.28V80.6217C140.911 76.433 138.861 73.139 134.146 73.139C130.456 73.139 127.975 75.2943 126.95 79.1577C126.52 75.6807 124.429 73.139 120.288 73.139C116.598 73.139 114.117 75.2943 113.092 79.1577C112.662 75.6807 110.571 73.139 106.409 73.139C102.699 73.139 100.218 75.2943 99.2137 79.1984C98.8242 75.701 96.6307 73.139 92.5307 73.139C88.8202 73.139 86.3807 75.2943 85.3762 79.1984V73.5864H75.2492V73.6677C77.2992 74.847 77.5657 75.4367 77.5657 78.385V90.28C77.5657 93.1267 77.4427 93.696 75.5362 94.8957C73.6297 93.696 73.5067 93.1267 73.5067 90.28V73.5864H55.4667V73.6677C56.3482 73.9727 56.9017 74.6234 56.9017 75.4367C56.9427 76.1687 56.5122 77.043 55.5077 77.9987L51.6332 81.679C50.5057 82.7567 49.7472 82.9397 48.5172 82.9397H47.6972V62.6064H37.3242V62.6877C39.3742 63.684 39.9072 64.4974 39.9072 67.405V90.28C39.9072 93.1267 39.7842 93.696 37.8982 94.8957V94.977H49.7677V94.8957C47.8407 93.6757 47.7177 93.1267 47.7177 90.28V83.753H48.2917C49.0297 83.753 49.3782 84.058 49.8087 84.8714L53.3962 91.927C54.0522 93.147 54.2777 94.2654 54.1342 94.9974H87.4467V94.916C85.5197 93.696 85.3967 93.147 85.3967 90.3004V82.533C85.3967 78.629 86.7497 76.8194 88.7997 76.8194C90.8497 76.8194 91.4647 78.4257 91.4647 80.4184V90.28C91.4647 93.1267 91.3417 93.696 89.4557 94.8957V94.977H101.325V94.8957C99.4392 93.6757 99.2752 93.1267 99.2752 90.28V82.533C99.2752 78.629 100.669 76.8194 102.678 76.8194C104.728 76.8194 105.384 78.4257 105.384 80.4184V90.28C105.384 93.1267 105.261 93.696 103.334 94.8957V94.977H115.245V94.8957C113.318 93.6757 113.195 93.1267 113.195 90.28V81.191C113.482 78.2427 114.773 76.8397 116.536 76.8397C118.586 76.8397 119.242 78.446 119.242 80.4387V90.3004C119.242 93.147 119.119 93.7163 117.192 94.916V94.9974H129.103V94.916C127.176 93.696 127.053 93.147 127.053 90.3004V81.1707C127.34 78.2224 128.631 76.8194 130.394 76.8194C132.444 76.8194 133.1 78.4257 133.1 80.4184V90.28C133.1 93.1267 132.977 93.696 131.05 94.8957V94.977H142.961V94.8957C141.034 93.696 140.911 93.1267 140.911 90.28ZM65.7167 90.28C65.7167 92.7404 65.6142 93.4927 64.3842 94.428C62.7852 93.269 61.5552 91.4797 60.5712 89.6293L55.3027 79.5847L57.7832 77.2057C59.5257 75.64 61.0017 74.6234 63.6462 73.7897C65.4912 74.8674 65.7372 75.5384 65.7372 78.385L65.7167 90.28Z" fill="#CCCCCC"/>
<path d="M146.036 63.6636C143.719 63.6636 141.936 65.2699 141.936 67.5676C141.936 70.1296 143.842 71.1666 145.564 71.1666C146.446 71.1666 147.307 70.9022 147.84 70.4549C147.901 70.7192 147.922 70.9632 147.922 71.2276C147.922 73.4236 145.708 74.9892 143.801 75.5179L144.068 76.3312C148.619 75.4162 150.669 71.9596 150.669 68.9096C150.689 66.1036 149.029 63.6636 146.036 63.6636Z" fill="#CCCCCC"/>
</svg>
