<svg width="171" height="58" viewBox="0 0 171 58" fill="none" xmlns="http://www.w3.org/2000/svg">
<g clip-path="url(#clip0_1_3179)">
<mask id="mask0_1_3179" style="mask-type:luminance" maskUnits="userSpaceOnUse" x="0" y="0" width="170" height="58">
<path d="M169.336 0H0.637695V58H169.336V0Z" fill="white"/>
</mask>
<g mask="url(#mask0_1_3179)">
<path d="M0.637695 0H58.51V58H0.637695V0ZM52.5145 51.9912V6.0088H6.63327V52.0028H52.526L52.5145 51.9912ZM11.8418 14.964V32.538C11.8418 40.5768 16.2401 45.2748 23.6825 45.2748C31.1248 45.2748 35.7546 40.484 35.7546 32.538V14.964H29.7591V32.538C29.7591 37.0852 27.8261 39.6024 23.8214 39.6024C19.8166 39.6024 17.8258 36.9344 17.8258 32.538V14.964H11.8302H11.8418ZM43.4864 18.5484C45.6161 18.5484 47.1555 17.0984 47.1555 14.964C47.1555 12.8296 45.6045 11.2868 43.4864 11.2868C41.3683 11.2868 39.8173 12.7832 39.8173 14.964C39.8173 17.1448 41.3683 18.5484 43.4864 18.5484ZM40.4886 21.402V44.9848H46.4842V21.402H40.4886ZM76.2884 35.2988C82.8048 35.2988 87.0642 31.4708 87.0642 25.0328C87.0642 18.5948 82.909 14.964 76.2884 14.964H64.8876V44.9848H70.8831V35.2988H76.2884ZM75.6634 30.508H70.8831V19.8128H75.6634C79.0894 19.8128 80.9761 21.75 80.9761 25.0444C80.9761 28.5824 79.0894 30.5196 75.6634 30.5196V30.508ZM89.0898 33.2224C89.0898 40.2404 93.5807 45.2748 99.9582 45.2748C103.731 45.2748 106.185 43.9176 107.586 41.644V44.9848H113.581V21.402H107.586V25.0792C106.139 22.6548 103.627 21.112 99.9582 21.112C93.4881 21.112 89.0898 26.2392 89.0898 33.2108V33.2224ZM107.586 33.2224C107.586 37.3404 105.028 39.9968 101.359 39.9968C97.2961 39.9968 95.1779 37.1432 95.1779 33.2224C95.1779 29.0116 97.5507 26.3436 101.359 26.3436C105.167 26.3436 107.586 29.1508 107.586 33.2224ZM128.698 39.8576C126.383 39.8576 125.746 38.8368 125.746 36.7604V26.4944H131.013V21.4136H125.746V14.9756H119.751V21.4136H116.95V26.4944H119.751V36.714C119.751 42.282 122.216 44.9964 127.911 44.9964H131.047V39.8692H128.674L128.698 39.8576ZM140.388 24.708V13.5256H134.392V44.9964H140.388V32.5032C140.388 28.4896 142.518 26.0652 146.036 26.0652C149.555 26.0652 151.395 28.3852 151.395 31.9696V44.9964H157.391V31.2968C157.391 25.1024 153.039 21.0772 147.483 21.0772C143.906 21.0772 141.73 22.4344 140.376 24.708H140.388Z" fill="#CCCCCC"/>
<path d="M163.132 23.2573C159.428 23.2573 156.894 20.6705 156.894 17.0629C156.894 13.4553 159.509 10.9033 163.132 10.9033C166.755 10.9033 169.336 13.3857 169.336 17.0629C169.336 20.7401 166.79 23.2573 163.132 23.2573ZM163.132 11.9937C160.03 11.9937 158.063 13.9425 158.063 17.0513C158.063 20.1601 160.134 22.0741 163.132 22.0741C166.13 22.0741 168.179 20.0557 168.179 17.0513C168.179 14.0469 166.211 11.9937 163.132 11.9937ZM164.544 18.0257L165.852 20.4733H164.301L163.063 18.2229H162.079V20.4733H160.678V13.5017H163.352C164.868 13.5017 165.991 14.3949 165.991 15.8333C165.991 16.9005 165.424 17.6661 164.544 18.0257ZM162.079 17.1093H163.178C163.989 17.1093 164.544 16.6569 164.544 15.8333C164.544 15.0793 163.989 14.6269 163.178 14.6269H162.079V17.1093Z" fill="#CCCCCC"/>
</g>
</g>
<defs>
<clipPath id="clip0_1_3179">
<rect width="170" height="58" fill="white" transform="translate(0.637695)"/>
</clipPath>
</defs>
</svg>
